<svg width="50" height="50" viewBox="0 0 50 50" fill="none" xmlns="http://www.w3.org/2000/svg">
<g clip-path="url(#clip0_2_41)">
<rect x="3" y="3" width="44" height="44" rx="5" fill="white"/>
<path d="M25.151 38.36C23.399 38.36 21.863 38.036 20.543 37.388C19.223 36.716 18.191 35.792 17.447 34.616C16.727 33.416 16.367 32.024 16.367 30.44V19.28C16.367 17.672 16.727 16.28 17.447 15.104C18.191 13.928 19.223 13.016 20.543 12.368C21.863 11.696 23.399 11.36 25.151 11.36C26.927 11.36 28.463 11.696 29.759 12.368C31.079 13.016 32.099 13.928 32.819 15.104C33.563 16.28 33.935 17.672 33.935 19.28H28.535C28.535 18.224 28.235 17.42 27.635 16.868C27.059 16.316 26.231 16.04 25.151 16.04C24.071 16.04 23.231 16.316 22.631 16.868C22.055 17.42 21.767 18.224 21.767 19.28V30.44C21.767 31.472 22.055 32.276 22.631 32.852C23.231 33.404 24.071 33.68 25.151 33.68C26.231 33.68 27.059 33.404 27.635 32.852C28.235 32.276 28.535 31.472 28.535 30.44H33.935C33.935 32.024 33.563 33.416 32.819 34.616C32.099 35.792 31.079 36.716 29.759 37.388C28.463 38.036 26.927 38.36 25.151 38.36Z" fill="black"/>
<rect x="3" y="3" width="44" height="44" rx="5" stroke="#A9A9A9" stroke-width="4" stroke-linejoin="round"/>
</g>
<defs>
<clipPath id="clip0_2_41">
<rect width="50" height="50" fill="white"/>
</clipPath>
</defs>
</svg>
