<svg width="50" height="50" viewBox="0 0 50 50" fill="none" xmlns="http://www.w3.org/2000/svg">
<g clip-path="url(#clip0_2_113)">
<rect x="3" y="3" width="44" height="44" rx="5" fill="#3A90CE"/>
<path d="M17.7141 38.36C16.6101 38.36 15.7221 38.036 15.0501 37.388C14.4021 36.716 14.0781 35.828 14.0781 34.724C14.0781 33.596 14.4021 32.708 15.0501 32.06C15.7221 31.412 16.6101 31.088 17.7141 31.088C18.8421 31.088 19.7301 31.412 20.3781 32.06C21.0261 32.708 21.3501 33.596 21.3501 34.724C21.3501 35.828 21.0261 36.716 20.3781 37.388C19.7301 38.036 18.8421 38.36 17.7141 38.36ZM26.52 38V25.4H21.264V20.54H26.52V17.84C26.52 15.992 27.144 14.516 28.392 13.412C29.664 12.284 31.32 11.72 33.36 11.72H39.156V16.4H33.54C33.06 16.4 32.664 16.556 32.352 16.868C32.064 17.156 31.92 17.54 31.92 18.02V20.54H39.156V25.4H31.92V38H26.52Z" fill="black"/>
<rect x="3" y="3" width="44" height="44" rx="5" stroke="#15649C" stroke-width="4" stroke-linejoin="round"/>
</g>
<defs>
<clipPath id="clip0_2_113">
<rect width="50" height="50" fill="white"/>
</clipPath>
</defs>
</svg>
