<svg width="50" height="50" viewBox="0 0 50 50" fill="none" xmlns="http://www.w3.org/2000/svg">
<g clip-path="url(#clip0_2_109)">
<rect x="3" y="3" width="44" height="44" rx="5" fill="#CE433A"/>
<path d="M14.2741 38.36C13.1701 38.36 12.2821 38.036 11.6101 37.388C10.9621 36.716 10.6381 35.828 10.6381 34.724C10.6381 33.596 10.9621 32.708 11.6101 32.06C12.2821 31.412 13.1701 31.088 14.2741 31.088C15.4021 31.088 16.2901 31.412 16.9381 32.06C17.5861 32.708 17.9101 33.596 17.9101 34.724C17.9101 35.828 17.5861 36.716 16.9381 37.388C16.2901 38.036 15.4021 38.36 14.2741 38.36ZM20.452 38V18.2H24.7V21.08H25.564L24.88 21.584C24.88 20.456 25.204 19.556 25.852 18.884C26.5 18.188 27.304 17.84 28.264 17.84C29.296 17.84 30.1 18.284 30.676 19.172C31.252 20.06 31.54 21.236 31.54 22.7L30.892 21.08H31.9L31.576 21.584C31.576 20.456 31.888 19.556 32.512 18.884C33.136 18.188 33.976 17.84 35.032 17.84C36.232 17.84 37.204 18.296 37.948 19.208C38.692 20.096 39.064 21.32 39.064 22.88V38H34.42V23.24C34.42 22.688 34.3 22.268 34.06 21.98C33.82 21.668 33.472 21.512 33.016 21.512C32.56 21.512 32.212 21.668 31.972 21.98C31.732 22.268 31.612 22.688 31.612 23.24V38H27.904V23.24C27.904 22.688 27.784 22.268 27.544 21.98C27.304 21.668 26.956 21.512 26.5 21.512C26.044 21.512 25.696 21.668 25.456 21.98C25.216 22.268 25.096 22.688 25.096 23.24V38H20.452Z" fill="black"/>
<rect x="3" y="3" width="44" height="44" rx="5" stroke="#8E2C25" stroke-width="4" stroke-linejoin="round"/>
</g>
<defs>
<clipPath id="clip0_2_109">
<rect width="50" height="50" fill="white"/>
</clipPath>
</defs>
</svg>
